PathFileType	4	(X/Y/Z)	RBDS019static.trc
DataRate	CameraRate	NumFrames	NumMarkers	Units	OrigDataRate	OrigDataStartFrame	OrigNumFrames
150.000000	150.000000	4	48	mm	150.000000	131	150
Frame#	Time	L.Ankle			L.Ankle.Medial			L.ASIS			L.GTR			L.Heel.Bottom			L.Heel.Lateral			L.Heel.Top			L.HF			L.Iliac.Crest			L.Knee			L.Knee.Medial			L.MT1			L.MT2			L.MT5			L.PSIS			L.Shank.Bottom.Lateral			L.Shank.Bottom.Medial			L.Shank.Top.Lateral			L.Shank.Top.Medial			L.Thigh.Bottom.Lateral			L.Thigh.Bottom.Medial			L.Thigh.Top.Lateral			L.Thigh.Top.Medial			L.TT			R.Ankle			R.Ankle.Medial			R.ASIS			R.GTR			R.Heel.Bottom			R.Heel.Lateral			R.Heel.Top			R.HF			R.Iliac.Crest			R.Knee			R.Knee.Medial			R.MT1			R.MT2			R.MT5			R.PSIS			R.Shank.Bottom.Lateral			R.Shank.Bottom.Medial			R.Shank.Top.Lateral			R.Shank.Top.Medial			R.Thigh.Bottom.Lateral			R.Thigh.Bottom.Medial			R.Thigh.Top.Lateral			R.Thigh.Top.Medial			R.TT			
		X1	Y1	Z1	X2	Y2	Z2	X3	Y3	Z3	X4	Y4	Z4	X5	Y5	Z5	X6	Y6	Z6	X7	Y7	Z7	X8	Y8	Z8	X9	Y9	Z9	X10	Y10	Z10	X11	Y11	Z11	X12	Y12	Z12	X13	Y13	Z13	X14	Y14	Z14	X15	Y15	Z15	X16	Y16	Z16	X17	Y17	Z17	X18	Y18	Z18	X19	Y19	Z19	X20	Y20	Z20	X21	Y21	Z21	X22	Y22	Z22	X23	Y23	Z23	X24	Y24	Z24	X25	Y25	Z25	X26	Y26	Z26	X27	Y27	Z27	X28	Y28	Z28	X29	Y29	Z29	X30	Y30	Z30	X31	Y31	Z31	X32	Y32	Z32	X33	Y33	Z33	X34	Y34	Z34	X35	Y35	Z35	X36	Y36	Z36	X37	Y37	Z37	X38	Y38	Z38	X39	Y39	Z39	X40	Y40	Z40	X41	Y41	Z41	X42	Y42	Z42	X43	Y43	Z43	X44	Y44	Z44	X45	Y45	Z45	X46	Y46	Z46	X47	Y47	Z47	X48	Y48	Z48	

132	0.8733333333333334	710.4039916992188	94.54950714111328	1046.644775390625	717.8125610351563	101.8957748413086	1126.731567382813	832.4840087890625	971.1400756835938	1113.526611328125	769.38720703125	890.88330078125	1050.71142578125	635.2357788085938	36.34884643554688	1081.820922851563	666.781005859375	56.35639953613281	1040.566040039063	643.6768798828125	84.26942443847656	1083.021484375	720.6190795898438	441.8356628417969	1036.40087890625	773.2835083007813	1024.81640625	1072.133422851563	725.3367919921875	500.4476013183594	1043.125610351563	706.6871337890625	481.181640625	1165.56591796875	836.6427612304688	54.22222137451172	1127.615234375	845.776123046875	67.45991516113281	1084.459350585938	812.5126953125	48.33897399902344	1020.956970214844	657.4730224609375	994.6590576171875	1165.950439453125	699.9852905273438	176.6949768066406	1037.045288085938	661.0186767578125	172.4537963867188	1069.86865234375	687.039794921875	255.7774353027344	1026.07421875	648.45703125	255.7738952636719	1062.135498046875	726.00634765625	613.1165771484375	1035.990966796875	662.9817504882813	620.89794921875	1073.48681640625	736.2732543945313	722.3897094726563	1033.06298828125	676.7120971679688	729.3751220703125	1069.926513671875	769.8707275390625	425.9306640625	1089.914672851563	706.3370361328125	99.02277374267578	1407.007202148438	723.7030639648438	109.3675384521484	1327.542846679688	815.1280517578125	972.7913818359375	1349.908203125	743.3624877929688	898.49267578125	1400.645141601563	634.5872802734375	40.03908538818359	1368.167602539063	661.9263305664063	57.35573959350586	1407.307250976563	644.1488037109375	84.97011566162109	1365.88671875	715.18603515625	451.3428344726563	1404.234008789063	757.8975830078125	1036.273193359375	1367.248168945313	718.2536010742188	511.7352294921875	1396.93310546875	722.9957275390625	484.8060913085938	1273.905395507813	832.376953125	58.75431823730469	1328.446899414063	846.6226196289063	69.90789031982422	1370.999755859375	805.698974609375	47.62285614013672	1434.528930664063	653.6473999023438	1003.866638183594	1267.56396484375	698.126220703125	171.0503997802734	1411.7763671875	659.2279663085938	168.6894989013672	1371.939453125	683.8291015625	250.6687774658203	1419.721435546875	647.3912353515625	247.8574981689453	1379.553100585938	706.6749267578125	607.3466796875	1404.353393554688	656.2107543945313	610.327392578125	1353.485107421875	708.0680541992188	717.7427368164063	1408.678833007813	657.4642333984375	720.071044921875	1362.7060546875	768.556884765625	429.8240966796875	1352.378173828125	
133	0.88	710.4066772460938	94.54788208007813	1046.639526367188	717.8150024414063	101.8990936279297	1126.744384765625	832.4823608398438	971.1422119140625	1113.541259765625	769.3886108398438	890.8787841796875	1050.7177734375	635.2329711914063	36.35297393798828	1081.827026367188	666.7823486328125	56.3592414855957	1040.557495117188	643.6798095703125	84.27391815185547	1083.020874023438	720.6211547851563	441.8417663574219	1036.404907226563	773.2760620117188	1024.8095703125	1072.141357421875	725.3327026367188	500.4533996582031	1043.129760742188	706.6915283203125	481.1889953613281	1165.575317382813	836.6408081054688	54.22373199462891	1127.616943359375	845.781494140625	67.45669555664063	1084.466430664063	812.5170288085938	48.32976531982422	1020.958251953125	657.481201171875	994.6576538085938	1165.9619140625	699.9802856445313	176.6961669921875	1037.046997070313	661.0243530273438	172.4471282958984	1069.8779296875	687.04248046875	255.7804107666016	1026.0810546875	648.4651489257813	255.7693634033203	1062.129028320313	726.0045166015625	613.1075439453125	1035.998901367188	662.981689453125	620.902587890625	1073.494140625	736.2850952148438	722.3853149414063	1033.085083007813	676.71044921875	729.37158203125	1069.937377929688	769.8837280273438	425.9371337890625	1089.914428710938	706.3380126953125	99.02067565917969	1407.01318359375	723.6961059570313	109.3619842529297	1327.540649414063	815.1312866210938	972.7927856445313	1349.908081054688	743.3754272460938	898.4935302734375	1400.652221679688	634.5891723632813	40.02887344360352	1368.1669921875	661.9246826171875	57.35796356201172	1407.304931640625	644.1486206054688	84.98017883300781	1365.887939453125	715.1956176757813	451.3458251953125	1404.237548828125	757.9093627929688	1036.263916015625	1367.250122070313	718.2698364257813	511.7348937988281	1396.943359375	723.01416015625	484.8136901855469	1273.916259765625	832.3836669921875	58.75675201416016	1328.450439453125	846.6182861328125	69.92428588867188	1371.0078125	805.7013549804688	47.62356567382813	1434.52880859375	653.6558837890625	1003.864013671875	1267.567749023438	698.13525390625	171.0428924560547	1411.773071289063	659.2299194335938	168.6892700195313	1371.955810546875	683.8316650390625	250.664306640625	1419.727294921875	647.39599609375	247.8619842529297	1379.553955078125	706.68994140625	607.3593139648438	1404.358154296875	656.21875	610.3209838867188	1353.494995117188	708.0768432617188	717.7440185546875	1408.689453125	657.47705078125	720.0809936523438	1362.723754882813	768.5659790039063	429.82275390625	1352.386474609375	
134	0.8866666666666667	710.406005859375	94.55674743652344	1046.647583007813	717.8125610351563	101.8998718261719	1126.738891601563	832.48681640625	971.1443481445313	1113.5498046875	769.3860473632813	890.8859252929688	1050.723022460938	635.2327270507813	36.35065078735352	1081.828125	666.7857666015625	56.35525894165039	1040.564086914063	643.6752319335938	84.27100372314453	1083.015625	720.620849609375	441.8454895019531	1036.421752929688	773.2503662109375	1024.81396484375	1072.139282226563	725.3330078125	500.4503479003906	1043.1318359375	706.6868896484375	481.1895751953125	1165.58056640625	836.650146484375	54.23979187011719	1127.61962890625	845.7791748046875	67.46261596679688	1084.4609375	812.51611328125	48.33726119995117	1020.955139160156	657.4805297851563	994.6625366210938	1165.969604492188	699.9814453125	176.6992492675781	1037.049926757813	661.0230712890625	172.4478454589844	1069.878173828125	687.0297241210938	255.7861022949219	1026.082763671875	648.4539794921875	255.7795257568359	1062.136474609375	726.0113525390625	613.1233520507813	1036.005737304688	662.9827270507813	620.8988647460938	1073.496337890625	736.2891845703125	722.386474609375	1033.086303710938	676.71435546875	729.3715209960938	1069.940551757813	769.872314453125	425.9277648925781	1089.929931640625	706.3335571289063	99.02139282226563	1407.01171875	723.696533203125	109.3628997802734	1327.5498046875	815.1433715820313	972.79443359375	1349.922607421875	743.378173828125	898.4932250976563	1400.673583984375	634.5911865234375	40.03571319580078	1368.166259765625	661.9238891601563	57.36057662963867	1407.305786132813	644.1423950195313	84.98088836669922	1365.888793945313	715.1987915039063	451.3512268066406	1404.24951171875	757.9217529296875	1036.269897460938	1367.259399414063	718.2725219726563	511.74267578125	1396.947631835938	722.9899291992188	484.822265625	1273.925048828125	832.3814697265625	58.7503547668457	1328.449584960938	846.6190795898438	69.9146728515625	1370.997436523438	805.70068359375	47.6273078918457	1434.535766601563	653.6622924804688	1003.862915039063	1267.582153320313	698.1351318359375	171.0453948974609	1411.787231445313	659.23388671875	168.6907806396484	1371.957275390625	683.8340454101563	250.6659240722656	1419.734375	647.3970336914063	247.8565063476563	1379.566772460938	706.6945190429688	607.3538818359375	1404.373046875	656.2225952148438	610.3233642578125	1353.511596679688	708.08740234375	717.746826171875	1408.696655273438	657.4849853515625	720.0767822265625	1362.73779296875	768.5669555664063	429.8254089355469	1352.399047851563	
135	0.8933333333333334	710.4089965820313	94.55144500732422	1046.660888671875	717.8015747070313	101.9037933349609	1126.748046875	832.4891967773438	971.1401977539063	1113.55517578125	769.4099731445313	890.8944702148438	1050.875854492188	635.2399291992188	36.34420013427734	1081.822631835938	666.78125	56.35858535766602	1040.5615234375	643.6713256835938	84.27418518066406	1083.018432617188	720.6224365234375	441.8533630371094	1036.416259765625	773.2388916015625	1024.799926757813	1072.152099609375	725.3353271484375	500.4534606933594	1043.142944335938	706.6951904296875	481.1886901855469	1165.59228515625	836.6426391601563	54.23822784423828	1127.618041992188	845.7862548828125	67.46267700195313	1084.462280273438	812.5209350585938	48.33134460449219	1020.959899902344	657.4799194335938	994.660400390625	1165.983154296875	699.9808349609375	176.6973876953125	1037.043823242188	661.0239868164063	172.4532012939453	1069.876831054688	687.040771484375	255.7867584228516	1026.087524414063	648.450927734375	255.7842559814453	1062.137329101563	726.0128784179688	613.12548828125	1036.011474609375	662.9830932617188	620.9020385742188	1073.501098632813	736.2971801757813	722.39013671875	1033.095581054688	676.7177124023438	729.3709716796875	1069.95166015625	769.87841796875	425.9361877441406	1089.931274414063	706.3363037109375	99.01828765869141	1407.011840820313	723.6958618164063	109.3743362426758	1327.54443359375	815.1505737304688	972.79248046875	1349.928344726563	743.3887329101563	898.5004272460938	1400.68505859375	634.5805053710938	40.03739166259766	1368.16796875	661.9223022460938	57.35039901733398	1407.31640625	644.1455078125	84.98307037353516	1365.892822265625	715.1878051757813	451.3477172851563	1404.26220703125	757.9315795898438	1036.265502929688	1367.273803710938	718.277099609375	511.7467346191406	1396.96728515625	722.9807739257813	484.8164672851563	1273.932006835938	832.379638671875	58.75394058227539	1328.4482421875	846.6137084960938	69.91165924072266	1371.001708984375	805.7032470703125	47.62322616577148	1434.531616210938	653.6749267578125	1003.86474609375	1267.598510742188	698.1390991210938	171.0416717529297	1411.784423828125	659.2313232421875	168.6918640136719	1371.967895507813	683.8369140625	250.6678009033203	1419.741455078125	647.400390625	247.8596038818359	1379.568969726563	706.6987915039063	607.3539428710938	1404.382568359375	656.227783203125	610.3324584960938	1353.521728515625	708.0996704101563	717.7481079101563	1408.71630859375	657.4890747070313	720.0755004882813	1362.744873046875	768.5676879882813	429.8340759277344	1352.39794921875	
